<?xml version="1.0" encoding="UTF-8"?><svg id="uuid-17697e5b-ba29-474b-b2b3-89fbae63f572" xmlns="http://www.w3.org/2000/svg" width="213.46" height="26.95" viewBox="0 0 213.46 26.95"><defs><style>.uuid-dd19979b-dcd5-4a6b-87fa-7826d4f34442{fill:#2d5753;}.uuid-b032bd32-8e40-45c6-8fb0-049d696c3264{fill:#77bc53;}.uuid-e398d1cd-cbab-4958-95a8-9fd20370442f{fill:#accd6c;}</style></defs><g id="uuid-c512bd69-8745-4c06-a1f5-b4c3f4272fc8"><path class="uuid-e398d1cd-cbab-4958-95a8-9fd20370442f" d="M1.11,6.03c-2.92,7.64-.41,17.26,11.54,18.49l.54,1.14.82-.36-.48-1.16C19.74,16.74,10.66,6.31,1.11,6.03Z"/><path class="uuid-b032bd32-8e40-45c6-8fb0-049d696c3264" d="M27.23.03C15.55-.61,3.52,8.34,8.8,19.26l-1.17,1.71.77.51,1.1-1.6C24.23,20.9,29.21,9.82,27.23.03Z"/><path class="uuid-dd19979b-dcd5-4a6b-87fa-7826d4f34442" d="M33.8,7.5c1.36,1.06,2.41,1.99,3.84,3.5l-1.57,3.08c-1.49-1.74-2.25-2.46-3.8-3.72l1.53-2.86ZM37.45,17.21c-.94,4.14-1.34,5.49-2.35,8.18-.29.73-.31.81-.42,1.12l-2.37-2.74c.27-.36.61-1.04,1.03-2.04.78-1.85,1.28-3.53,1.89-6.52l2.23,2.02ZM34.64.52c1.49,1.23,2.35,2.07,3.74,3.64l-1.74,2.94c-1.26-1.6-2.23-2.6-3.67-3.86l1.68-2.72ZM51.1,22.39c.44,0,.65,0,1.05-.11v3.53c-.48-.08-1.62-.17-2.41-.17h-10.75c-.92,0-1.68.06-2.44.17v-3.47c.38.06.59.08,1.03.08h.42v-6.61c0-.76-.02-1.18-.06-1.93.4.06.76.08,1.81.08h9.28c1.13,0,1.47,0,1.87-.08-.04.7-.06,1.15-.06,1.9v6.61h.27ZM40.58,12.65c-.69,0-1.28.03-1.95.08.06-.81.08-1.6.08-2.72V3.74c0-1.01-.02-1.74-.08-2.55.57.11,1.13.14,2.2.14h7.05c1.11,0,1.66-.03,2.2-.14-.06.9-.08,1.4-.08,2.72v6.16c0,1.12.02,1.74.08,2.63-.57-.03-1.01-.06-1.91-.06h-7.6ZM40.37,22.36h1.24v-5.35h-1.24v5.35ZM41.29,5.73h6.11v-1.4h-6.11v1.4ZM41.29,9.85h6.11v-1.43h-6.11v1.43ZM43.73,22.36h1.24v-5.35h-1.24v5.35ZM47.09,22.36h1.26v-5.35h-1.26v5.35Z"/><path class="uuid-dd19979b-dcd5-4a6b-87fa-7826d4f34442" d="M67.58,18.81c-.61-1.18-.78-1.54-1.18-2.27-.69,1.74-1.34,2.88-2.46,4.26-.42-.84-.73-1.34-1.26-2.13-2.77.59-3.02.64-5.42,1.04-2.08.31-2.71.42-3.21.56l-.42-3.33c.08,0,.17,0,.23.03h.27c.73,0,2.25-.11,3.38-.22v-1.54h-1.45c-.46,0-.86.03-1.26.08v-1.79c-.21.14-.29.17-.59.36-.29-1.18-.48-1.65-1.05-2.72,1.53-.62,2.16-1.23,2.46-2.32h-.46c-.61,0-1.07.03-1.55.11v-2.97c.46.08.88.11,1.62.11h2.31v-1.15h-1.64c-.73,0-.97,0-1.49.08v-2.88c.57.11.97.14,1.66.14h1.47v-.36c0-.48-.04-.87-.1-1.34h2.6c-.08.48-.1.84-.1,1.34v.36h1.26c.88,0,1.36-.03,1.76-.14v2.88c-.4-.06-.88-.08-1.47-.08h-1.55v1.15h1.83c.69,0,1.15-.03,1.62-.11v2.97c-.44-.08-.84-.11-1.55-.11h-.25v.92c0,.25.04.31.31.31.42,0,.5-.14.52-.95.61.39.97.53,1.6.62-.25,1.99-.55,2.27-2.27,2.27-1.13,0-1.49-.08-1.76-.45-.15-.22-.21-.45-.23-.98-.06.42-.06.81-.06,1.68v.34h1.64c.59,0,.99-.03,1.28-.08v2.77c-.36-.03-.69-.06-1.32-.06h-1.53v1.29c.84-.11,1.39-.2,3.04-.48v1.34c.9-1.09,1.47-2.13,1.91-3.56-.34-.48-.61-.84-1.34-1.82l1.2-2.77.84,1.09c.1-.84.13-1.32.17-2.55h-.4c-.57,0-.97.03-1.34.11v-3.44c.4.08.73.11,1.36.11h.42q0-.45.02-1.51c0-.87-.04-1.57-.13-2.38h2.73q-.08.7-.15,3.89h1.18c.76,0,1.26-.03,1.85-.11-.04.5-.08,1.54-.08,2.32,0,.45.08,4.59.1,4.93.13,2.32.25,3.47.5,4.2.15-.11.27-1.76.29-4,.52.59.88.87,1.51,1.23-.21,4.65-.8,6.58-1.97,6.58-.82,0-1.45-.9-1.93-2.69-.55-1.99-.8-4.79-.8-9.24h-.86c-.08,2.04-.25,3.78-.5,5.29.61.95.88,1.4,1.64,2.77l-1.43,3ZM53.47,24.43c1.47-1.6,1.99-2.46,2.75-4.45l2.25,1.48c-.86,2.44-1.43,3.5-2.75,5.26l-2.25-2.3ZM57.63,12.2c0-.81-.02-1.26-.06-1.68h2.18v-1.71h-1.89c-.27,1.57-.84,2.69-1.87,3.75h1.64v-.36ZM59.67,26.54c.02-.39.02-.7.02-.87,0-1.57-.06-2.86-.23-4.51l2.46-.31c.27,1.96.38,3.19.44,5.43l-2.69.25ZM64.66,26.56c-.27-2.21-.5-3.44-1.03-5.26l2.44-.67c.63,1.96.78,2.66,1.24,5.15l-2.65.78ZM70.44,26.62c-.86-2.24-1.45-3.47-2.67-5.43l2.23-1.4c1.49,2.18,2.06,3.14,2.94,4.98l-2.5,1.85Z"/><path class="uuid-dd19979b-dcd5-4a6b-87fa-7826d4f34442" d="M76.07,5.03c-.61,0-1.01.06-1.45.14V1.67c.55.08,1.11.14,1.85.14h2.06c.78,0,1.3-.06,1.87-.14v3.5c-.44-.08-.78-.14-1.18-.14h-.19v4.98c.44,0,.67,0,1.07-.08v3.3c-.4-.06-.63-.08-1.07-.08v4.51c.5-.25.84-.45,1.83-1.04v3.44c-1.95,1.26-2.79,1.74-4.93,2.8-.44.22-.84.45-1.11.62l-.59-3.78c.4-.03.94-.22,2.18-.78v-5.77c-.65,0-1.01.03-1.47.11v-3.36c.44.08.82.11,1.47.11v-4.98h-.34ZM93.26,19.76c-.17.2-.25.31-.52.64-.61.76-.84,1.01-1.22,1.37,1.01.64,1.64.92,2.83,1.32-.57,1.29-.92,2.18-1.3,3.36-1.53-.81-2.35-1.37-3.34-2.3-.88-.87-1.36-1.48-1.99-2.52.04.9.06,1.09.06,1.82v1.29c0,.9.02,1.43.1,2.07h-2.79c.08-.7.1-1.18.1-2.24v-1.37c0-.17.02-.7.06-1.65-1.45,2.07-2.56,3.11-5.1,4.82-.48-1.29-.99-2.18-1.66-3.02,3.02-1.54,4.6-2.8,5.96-4.82h-1.47c-.67,0-1.43.03-1.68.08.04-.42.06-.87.06-1.76v-2.41c0-.84-.02-1.26-.06-1.76.52.06,1.07.08,1.83.08h7.68c.86,0,1.49-.03,1.95-.08-.04.5-.06,1.01-.06,1.76v2.52c0,.76.02,1.2.06,1.65-.13-.03-.52-.06-1.22-.08l1.7,1.23ZM80.54,8.73c.59.11,1.13.14,2.04.14h9.28c.88,0,1.41-.03,2.04-.14v3.22c-.67-.11-1.15-.14-2.02-.14h-9.3c-.88,0-1.45.03-2.04.14v-3.22ZM80.92,3.27c0-1.09-.02-1.6-.06-2.07.52.08,1.05.11,1.66.11h9.11c.44,0,.94-.03,1.7-.11-.06.76-.08,1.4-.08,2.04v2.72c0,.64.02,1.4.06,2.02-.55-.06-.78-.06-1.64-.06h-9.13c-.82,0-1.15,0-1.68.06.04-.48.06-.92.06-2.02v-2.69ZM84.4,3.88h-1.26v1.71h1.26v-1.71ZM83.96,16.18h6.13v-1.15h-6.13v1.15ZM87.68,3.88h-1.26v1.71h1.26v-1.71ZM88.12,18.53c.4.67.67.98,1.36,1.65.48-.45,1.01-1.06,1.41-1.65h-2.77ZM90.93,3.88h-1.26v1.71h1.26v-1.71Z"/><path class="uuid-dd19979b-dcd5-4a6b-87fa-7826d4f34442" d="M97.4,4c0-1.46-.04-2.3-.13-3.14h2.83c-.1.87-.13,1.6-.13,3.14v3.56c.65,0,.86,0,1.26-.08v3.44c-.4-.06-.71-.08-1.26-.08v6.36q.44-.25,1.64-.98l.06,3.61c-1.6.98-2.77,1.65-5,2.83-.36.2-.73.42-1.01.59l-.5-3.89c.55-.08,1.11-.31,2.23-.84v-7.67h-.38c-.57,0-1.05.03-1.57.14v-3.56c.55.11,1.01.14,1.62.14h.34v-3.56ZM104.06,19.98c-.63,0-.82,0-1.81.08.04-.56.06-.95.06-2.13v-5.1c0-1.01-.02-1.62-.06-2.24.57.08.9.08,1.97.08h7.66c1.05,0,1.41,0,1.95-.08-.06.67-.08,1.26-.08,2.21v4.96c0,.95.02,1.6.08,2.3-.48-.06-.84-.08-1.78-.08h-1.62v2.74c0,.48.13.53,1.05.53.67,0,.94-.08,1.05-.34.08-.25.13-.81.13-2.52.88.59,1.43.81,2.44,1.09-.1,2.63-.34,3.67-.94,4.31-.5.5-1.3.67-3.11.67-1.28,0-1.97-.11-2.46-.39-.52-.34-.69-.78-.69-1.85v-4.26h-1.15c-.25,2.07-.61,3.11-1.41,4.23-.99,1.34-2.29,2.1-4.68,2.74-.42-1.34-.73-2.07-1.36-3.11,1.7-.22,2.94-.64,3.7-1.29.71-.62,1.07-1.34,1.24-2.58h-.17ZM112.02,2.62c.94,0,1.72-.06,2.35-.14v3c-.63-.06-1.22-.08-2.06-.08-.23.76-.27.9-.48,1.48h.92c1.09,0,1.55-.03,2.14-.11v3.14c-.78-.08-1.22-.11-2.27-.11h-9.05c-1.18,0-1.32,0-1.91.08v-3.08c.63.06.99.08,1.83.08h.65c-.15-.59-.23-.9-.44-1.48-.8,0-1.09.03-1.62.08v-3c.76.11,1.39.14,2.33.14h2.23v-.5c0-.59-.02-1.06-.1-1.6h2.92c-.08.56-.1.92-.1,1.57v.53h2.67ZM104.84,14.16h6.38v-1.04h-6.38v1.04ZM104.84,17.49h6.38v-1.09h-6.38v1.09ZM109.16,6.88c.19-.59.27-.84.44-1.48h-3.25c.15.48.29.95.42,1.48h2.39Z"/><path class="uuid-dd19979b-dcd5-4a6b-87fa-7826d4f34442" d="M117.6,11.17c1.63,1.09,2.73,2,4.04,3.44l-1.08,3.32c-1.22-1.53-2.54-2.72-4.13-3.74l1.17-3.02ZM116.79,22.16c1.34-.05,2.87-.62,4.42-1.63,1.83-1.19,3.06-2.77,4.22-5.4.79-1.78,1.23-3.24,1.69-5.47.83,1.46,1.1,1.83,1.86,2.62-.77,2.97-1.37,4.63-2.27,6.36-1.97,3.76-4.44,5.87-8.24,7.08-.46.15-.74.25-1.05.42l-.62-3.98ZM118.73,5.16c1.6.99,2.84,1.96,4.1,3.22l-1.13,3.22c-1.47-1.61-2.72-2.65-4.1-3.46l1.13-2.97Z"/><path class="uuid-dd19979b-dcd5-4a6b-87fa-7826d4f34442" d="M130.22,19.04c3.62.72,6.47,1.81,10.02,3.79l-.73,3.76c-1.63-1.16-3.04-1.88-5.37-2.77-1.84-.69-3.07-1.04-4.75-1.39l.83-3.39ZM131.41,12.09c2.39.45,4.9,1.34,7.93,2.85l-.65,3.59c-1.19-.79-2.23-1.29-4.19-2.03-1.26-.47-2.24-.74-3.88-1.06l.79-3.34ZM131.61,5.21c3.07.57,4.78,1.11,8.28,2.65l-.68,3.56c-2.69-1.41-5.67-2.43-8.39-2.85l.79-3.37Z"/><path class="uuid-dd19979b-dcd5-4a6b-87fa-7826d4f34442" d="M149.95,23.01c.76,0,1.06-.02,1.46-.13v2.74c-.32-.06-.85-.08-1.47-.08h-6.01c-.66,0-1.11.02-1.47.08v-2.74c.45.1.67.13,1.47.13h3.32c.26-2.37.45-4.38.57-6.44h-2.69c-.75,0-.97.02-1.42.08v-2.74c.5.1.71.13,1.47.13h3.02c.4,0,.54-.04.82-.21l.81,1.16c-.15.52-.17.69-.22,1.39-.16,2.22-.35,4.28-.6,6.63h.95Z"/><path class="uuid-dd19979b-dcd5-4a6b-87fa-7826d4f34442" d="M156.16,5.33c-.07.94-.1,1.71-.1,3.07l-.09,13.32c1.59-.54,2.81-1.41,3.96-2.8,1.26-1.51,2.15-3.24,2.88-5.59.65,1.51.89,1.93,1.69,3.02-2.11,5.42-4.66,8.09-8.98,9.41-.46.15-.62.22-.89.42l-1.13-2.23c.12-.57.15-.94.15-2.28l.06-13.24c.01-.12.01-.22.01-.35,0-1.19-.03-2.13-.09-2.8l2.52.05Z"/><path class="uuid-dd19979b-dcd5-4a6b-87fa-7826d4f34442" d="M165.59,13.5c.67.15,1.2.2,2.72.2h4.68c1.5,0,2.03-.02,2.72-.17v4.06c-.59-.07-1.57-.12-2.73-.12h-4.66c-1.29,0-2.14.05-2.72.15v-4.11Z"/><path class="uuid-dd19979b-dcd5-4a6b-87fa-7826d4f34442" d="M178.08,11.17c1.63,1.09,2.73,2,4.04,3.44l-1.08,3.32c-1.22-1.53-2.54-2.72-4.13-3.74l1.17-3.02ZM177.28,22.16c1.34-.05,2.87-.62,4.42-1.63,1.83-1.19,3.06-2.77,4.22-5.4.79-1.78,1.23-3.24,1.69-5.47.83,1.46,1.1,1.83,1.86,2.62-.77,2.97-1.37,4.63-2.27,6.36-1.97,3.76-4.44,5.87-8.24,7.08-.46.15-.74.25-1.05.42l-.62-3.98ZM179.21,5.16c1.6.99,2.84,1.96,4.1,3.22l-1.13,3.22c-1.47-1.61-2.72-2.65-4.1-3.46l1.13-2.97Z"/><path class="uuid-dd19979b-dcd5-4a6b-87fa-7826d4f34442" d="M192.68,25.54c-.7,0-1.02.02-1.4.08v-2.66c.49.12.72.15,1.4.15h4.54v-2.83h-4.01c-.8,0-1.05.02-1.45.08v-2.62c.47.12.67.15,1.45.15h4.01v-2.6h-4.41c-.59,0-1.07.04-1.4.1v-2.68c.44.12.71.15,1.4.15h4.8c.62,0,.9-.02,1.28-.08-.03.73-.04,1.35-.04,2.2v9.02c0,1.2.01,1.91.05,2.49h-1.68v-.96h-4.54Z"/><path class="uuid-dd19979b-dcd5-4a6b-87fa-7826d4f34442" d="M202.68,6.3c1.92,1.93,2.76,2.97,3.95,4.8l-1.5,3.24c-1.23-2.18-2.48-3.81-3.9-5.12l1.46-2.92ZM201.29,21.64c1.37-.15,3.06-.82,4.42-1.81,1.89-1.31,3.21-3.17,4.36-6.06.67-1.66,1.07-2.99,1.5-4.93.7,1.36.97,1.78,1.89,2.87-1.47,5.3-3.22,8.56-5.81,10.84-1.19,1.04-2.9,2.05-4.32,2.57q-.37.12-.65.22c-.34.12-.43.17-.74.35l-.65-4.06Z"/></g></svg>