<?xml version="1.0" encoding="UTF-8"?><svg id="uuid-795bc90f-0ee5-45ef-9b87-743bc747b0df" xmlns="http://www.w3.org/2000/svg" width="159.62" height="30.15" viewBox="0 0 159.62 30.15"><defs><style>.uuid-39de77a3-aae5-4006-8005-6d3107d39449{fill:#2d5753;}.uuid-94c13e0d-56ba-4cda-a4c5-789f5aef995e{fill:#77bc53;}.uuid-b5d201e0-0b48-448b-86fc-b8e8eff7a179{fill:#accd6c;}</style></defs><g id="uuid-1ea1fdcb-7a27-4789-ac0f-2ba4c27bc571"><path class="uuid-39de77a3-aae5-4006-8005-6d3107d39449" d="M41.41,30.03v-12.01l-3.08.19-.48-3.59c.29,0,.57.03.86.03s.6-.03.89-.03c.51-.86,1.05-1.78,1.59-2.77-1.02-1.49-2.32-3.21-3.37-4.32l1.65-3.27.64.83c.67-1.59,1.3-3.46,1.72-5.08l3.02,1.14c-.67,2.1-1.72,4.67-2.67,6.71l.64.92c.86-1.65,1.59-3.31,2.16-4.74l2.8,1.53c-1.27,2.8-3.15,6.36-4.64,8.9.64-.03,1.24-.1,1.81-.16-.13-.76-.25-1.49-.38-2.03l2.22-.83c.35,1.46.73,3.46,1.02,5.18l2.54-2.19c.79.89,1.97,2.35,2.73,3.5l-2.32,2.22c-1.08-1.43-2.03-2.61-2.96-3.46l.25,1.62-2.48.86c-.03-.51-.1-1.02-.16-1.56l-.83.1v12.33h-3.18ZM37.81,27.62c.48-2.51.73-5.59.86-8.45l2.42.51c-.06,2.76-.29,6.42-.7,8.9l-2.57-.95ZM59.62,28.98c-1.3-2.22-2.19-4.8-3.11-8.07.03.89.06,2.67.06,3.05v1.02c0,4.04-.54,4.83-4.74,5.05l-1.21-3.91c-.48.6-1.02,1.18-1.56,1.75l-1.46-2.1.16,1.59-2.35.67c-.1-2.42-.29-5.59-.64-8.01l2.1-.57c.22,1.46.44,3.15.6,4.77,1.3-1.11,2.54-2.61,3.59-4.2l1.91,2.86c-.67,1.05-1.37,2.03-2.1,2.96h.38c1.62,0,1.84-.41,1.84-1.97v-9.98l-5.62.03v-3.4h8.71l.03-1.53h-7.5v-3.11h7.6l.06-1.46h-8.26V1.08h11.98l-.32,9.44h1.94v3.37h-5.15v1.05c.35.92.67,1.81,1.02,2.67.67-.86,1.43-2,1.91-3.08l2.45,2.35c-.79,1.21-1.97,2.61-3.11,3.62.95,1.97,1.97,3.72,3.18,5.28l-2.38,3.21Z"/><path class="uuid-39de77a3-aae5-4006-8005-6d3107d39449" d="M69.45,26.29c5.48-.91,5.73-5.15,5.73-6.64,0-2.93-1.09-5.15-3.38-5.57-.64,6.23-1.75,10.04-2.72,11.73-.64,1.09-1.53,1.51-2.35,1.51-1.53,0-3.53-1.84-3.53-6.08s2.95-9.42,7.71-9.42c4.49,0,6.7,3.67,6.7,7.94,0,2.91-1.03,7.53-6.86,8.89l-1.3-2.37ZM65.43,21.34c0,.68.25,3.22,1.22,3.22,1.4,0,2.56-7.65,2.76-10.43-2.06.68-3.98,3.61-3.98,7.2Z"/><path class="uuid-39de77a3-aae5-4006-8005-6d3107d39449" d="M78.75,12.63v-2.87h7.96v2.87h-7.96ZM81.95,28.49v.95h-2.79v-8.57h7.22v7.65l-4.43-.03ZM79.41,8.71v-2.79h6.68v2.79h-6.68ZM79.41,16.26v-2.56h6.68v2.56h-6.68ZM79.41,19.84v-2.58h6.68v2.58h-6.68ZM83.77,23.58h-1.87v2.2h1.87v-2.2ZM90.78,29.44v-8.62h-4.15v-3.12h4.22v-8.65h-3.89v-3.12h10.59v3.12h-3.89v8.65h4.32v3.12h-4.22v8.62h-2.99ZM88.32,17.18c-.31-2.07-.9-5.02-1.36-6.83l2.43-.64c.49,2.02,1,4.66,1.36,6.7l-2.43.77ZM93.77,16.39c.56-1.79,1.02-4.5,1.25-6.68l2.56.56c-.31,2.33-.82,4.99-1.31,6.91l-2.51-.79Z"/><path class="uuid-39de77a3-aae5-4006-8005-6d3107d39449" d="M101.04,29.46v-12.79c-.49.79-.92,1.48-1.31,2l-.79-4.55c1.61-2.3,2.74-5.66,3.38-8.83l2.99.77c-.31,1.69-.77,3.38-1.36,4.96v18.45h-2.92ZM115.11,29.46v-1.25h-7.22v1.25h-2.64V12.27h2.92v-2.69h-2.92v-3.22h13.13v3.22h-3.58v2.69h3.05v17.2h-2.74ZM108.92,15.26h-1.02v9.93h1.02v-9.93ZM111.97,9.58h-.97v2.69h.97v-2.69ZM111.99,15.26h-1v9.93h1v-9.93ZM115.11,15.26h-1.07v9.93h1.07v-9.93Z"/><path class="uuid-39de77a3-aae5-4006-8005-6d3107d39449" d="M120.11,25.8c.31.03.59.03.84.03,1.43,0,1.48-.31,1.48-1.41v-3.66l-2.28.69-.56-3.35c.84-.18,1.82-.44,2.84-.72v-4.73h-2.33v-3.22h2.33v-4.15h2.99v4.15h1.94v3.22h-1.94v3.71c.74-.31,1.48-.67,2.15-1.07v3.28c-.64.38-1.38.74-2.15,1.07v4.76c0,3.76-.2,4.66-4.2,4.79l-1.13-3.38ZM130.06,15.85c-1.48,0-2.12-.54-2.12-2.02V5.51h3.02v2.61c2.02-.38,4.2-1.15,5.76-2.02l1.89,2.43c-2.2,1.18-5.02,2-7.65,2.46v1.46c0,.36.2.41.49.41h3.74c.74,0,.87-.28,1.02-2.79l2.87,1.13c-.44,4.17-1,4.63-3.25,4.63l-5.76.03ZM135.05,29.46v-1.02h-3.92v1.02h-2.94v-12.33h9.8v12.33h-2.94ZM135.05,19.92h-3.92v1.59h3.92v-1.59ZM135.05,24.01h-3.92v1.66h3.92v-1.66Z"/><path class="uuid-39de77a3-aae5-4006-8005-6d3107d39449" d="M147.41,16.62l-1.02,3.07c-.43-1.13-.82-2.56-1.13-3.94v13.72h-2.74v-6.7l.08-5.37c-.38,2.33-.82,4.48-1.38,6.3l-1.38-3.74c.92-1.82,1.79-4.48,2.46-7.32h-1.79v-3.1h2.02v-4.25h2.74v4.25h1.56v3.1h-1.41c.56,1.38,1.28,2.56,1.97,3.51v-6.14h2.84v-1.23h-3.33v-2.82h12.49v2.82h-3.38v1.23h2.92v6.63h-11.52ZM154.6,23.53v1.89c0,3.15-.41,3.84-3.61,4.02l-1-2.89c-.56.97-1.25,1.89-1.84,2.46l-2.1-1.89c1.2-1.02,1.89-2.15,2.46-3.38l2.35,1.05c-.18.46-.43.97-.72,1.48h.49c1.07,0,1.15-.15,1.15-.87v-1.87h-4.84v-2.69h12.39v2.69h-4.73ZM147.87,19.92v-2.41h10.52v2.38l-10.52.03ZM150.81,12.16h-.97v2.25h.97v-2.25ZM153.66,8.76h-1.1v1.23h1.1v-1.23ZM153.63,12.16h-1v2.25h1v-2.25ZM157.52,28.98c-.95-1.13-2-2.76-2.56-4.15l2.3-1.18c.56,1.2,1.48,2.53,2.35,3.43l-2.1,1.89ZM156.47,12.16h-1.02v2.25h1.02v-2.25Z"/><path class="uuid-b5d201e0-0b48-448b-86fc-b8e8eff7a179" d="M1.27,7.74c-3.33,8.72-.46,19.7,13.18,21.11l.62,1.3.93-.41-.55-1.32C22.54,19.96,12.17,8.06,1.27,7.74Z"/><path class="uuid-94c13e0d-56ba-4cda-a4c5-789f5aef995e" d="M31.08.9C17.75.16,4.02,10.38,10.04,22.84l-1.33,1.95.87.58,1.26-1.83c16.81,1.18,22.5-11.48,20.23-22.65Z"/></g></svg>